<svg width="44" height="44" viewBox="0 0 44 44" fill="none" xmlns="http://www.w3.org/2000/svg">
<path d="M12.8334 29.3333V36.6667C12.8334 37.1529 13.0265 37.6192 13.3703 37.963C13.7142 38.3068 14.1805 38.5 14.6667 38.5H36.6667C37.1529 38.5 37.6193 38.3068 37.9631 37.963C38.3069 37.6192 38.5 37.1529 38.5 36.6667V7.33333C38.5 6.8471 38.3069 6.38079 37.9631 6.03697C37.6193 5.69315 37.1529 5.5 36.6667 5.5H14.6667C14.1805 5.5 13.7142 5.69315 13.3703 6.03697C13.0265 6.38079 12.8334 6.8471 12.8334 7.33333V18.3333" stroke="white" stroke-width="2" stroke-linecap="round" stroke-linejoin="round"/>
<path d="M31.1666 11C31.1666 11.4862 30.9735 11.9525 30.6297 12.2964C30.2859 12.6402 29.8195 12.8333 29.3333 12.8333H22C21.5137 12.8333 21.0474 12.6402 20.7036 12.2964C20.3598 11.9525 20.1666 11.4862 20.1666 11V5.5H31.1666V11ZM6.03164 19.5983L8.59831 17.0317C8.94101 16.6958 9.40176 16.5076 9.88164 16.5076C10.3615 16.5076 10.8223 16.6958 11.165 17.0317L20.1666 26.0333V31.1667H15.0333L6.03164 22.165C5.69572 21.8223 5.50757 21.3615 5.50757 20.8817C5.50757 20.4018 5.69572 19.941 6.03164 19.5983Z" stroke="white" stroke-width="2" stroke-linecap="round" stroke-linejoin="round"/>
</svg>
