<svg width="44" height="44" viewBox="0 0 44 44" fill="none" xmlns="http://www.w3.org/2000/svg">
<path d="M23.8333 22L25.8317 24.2917L29.3333 19.7083M5.5 20.1667H16.5M7.33333 12.8333H16.5V31.1667H7.33333C6.8471 31.1667 6.38079 30.9735 6.03697 30.6297C5.69315 30.2859 5.5 29.8196 5.5 29.3333V14.6667C5.5 14.1804 5.69315 13.7141 6.03697 13.3703C6.38079 13.0265 6.8471 12.8333 7.33333 12.8333ZM38.5 36.6667V7.33333C38.5 6.8471 38.3068 6.38079 37.963 6.03697C37.6192 5.69315 37.1529 5.5 36.6667 5.5H18.3333C17.8471 5.5 17.3808 5.69315 17.037 6.03697C16.6932 6.38079 16.5 6.8471 16.5 7.33333V36.6667C16.5 37.1529 16.6932 37.6192 17.037 37.963C17.3808 38.3068 17.8471 38.5 18.3333 38.5H36.6667C37.1529 38.5 37.6192 38.3068 37.963 37.963C38.3068 37.6192 38.5 37.1529 38.5 36.6667ZM24.75 9.16667H30.25L31.1667 5.5H23.8333L24.75 9.16667Z" stroke="#676768" stroke-width="2" stroke-linecap="round" stroke-linejoin="round"/>
</svg>
