<svg width="44" height="44" viewBox="0 0 44 44" fill="none" xmlns="http://www.w3.org/2000/svg">
<path d="M23.8333 32.0827V34.8327M23.8333 9.16602V11.916M23.8333 18.3327V25.666M38.5 10.9993V32.9993C38.5 33.4856 38.3068 33.9519 37.963 34.2957C37.6192 34.6395 37.1529 34.8327 36.6667 34.8327H7.33333C6.8471 34.8327 6.38079 34.6395 6.03697 34.2957C5.69315 33.9519 5.5 33.4856 5.5 32.9993V27.4993C6.95869 27.4993 8.35764 26.9199 9.38909 25.8884C10.4205 24.857 11 23.458 11 21.9993C11 20.5406 10.4205 19.1417 9.38909 18.1102C8.35764 17.0788 6.95869 16.4993 5.5 16.4993V10.9993C5.5 10.5131 5.69315 10.0468 6.03697 9.70299C6.38079 9.35917 6.8471 9.16602 7.33333 9.16602H36.6667C37.1529 9.16602 37.6192 9.35917 37.963 9.70299C38.3068 10.0468 38.5 10.5131 38.5 10.9993Z" stroke="white" stroke-width="2" stroke-linecap="round" stroke-linejoin="round"/>
</svg>
