<svg width="44" height="44" viewBox="0 0 44 44" fill="none" xmlns="http://www.w3.org/2000/svg">
<path d="M22 23.8333C22 20.1667 27.5 22 27.5 16.5C27.5 11 16.5 11 16.5 16.5M38.5 22C38.5 25.2634 37.5323 28.4535 35.7193 31.1669C33.9062 33.8803 31.3293 35.9952 28.3143 37.244C25.2993 38.4929 21.9817 38.8196 18.781 38.183C15.5803 37.5463 12.6403 35.9748 10.3327 33.6673C8.02518 31.3597 6.45371 28.4197 5.81705 25.219C5.18039 22.0183 5.50715 18.7007 6.756 15.6857C8.00484 12.6707 10.1197 10.0938 12.8331 8.28075C15.5465 6.46771 18.7366 5.5 22 5.5C26.3761 5.5 30.5729 7.23839 33.6673 10.3327C36.7616 13.4271 38.5 17.6239 38.5 22Z" stroke="white" stroke-width="2" stroke-linecap="round" stroke-linejoin="round"/>
<path d="M22.0917 31.166H21.9083" stroke="white" stroke-width="3" stroke-linecap="round" stroke-linejoin="round"/>
</svg>
