<svg width="44" height="44" viewBox="0 0 44 44" fill="none" xmlns="http://www.w3.org/2000/svg">
<path d="M27.5 22C27.5 23.0878 27.1774 24.1512 26.5731 25.0556C25.9687 25.9601 25.1098 26.6651 24.1048 27.0813C23.0998 27.4976 21.9939 27.6065 20.927 27.3943C19.8601 27.1821 18.8801 26.6583 18.1109 25.8891C17.3417 25.1199 16.8179 24.1399 16.6057 23.073C16.3935 22.0061 16.5024 20.9002 16.9187 19.8952C17.3349 18.8902 18.0399 18.0313 18.9444 17.4269C19.8488 16.8226 20.9122 16.5 22 16.5C23.4587 16.5 24.8576 17.0795 25.8891 18.1109C26.9205 19.1424 27.5 20.5413 27.5 22ZM36.6667 18.3333H35.585C35.206 18.3318 34.8368 18.2129 34.5282 17.9929C34.2196 17.773 33.9867 17.4628 33.8617 17.105C33.6985 16.7616 33.6462 16.376 33.7119 16.0016C33.7776 15.6271 33.9581 15.2824 34.2283 15.015L34.98 14.2633C35.1518 14.0929 35.2882 13.8901 35.3813 13.6667C35.4744 13.4433 35.5223 13.2037 35.5223 12.9617C35.5223 12.7196 35.4744 12.48 35.3813 12.2566C35.2882 12.0332 35.1518 11.8304 34.98 11.66L32.3767 9.03833C32.2062 8.8665 32.0035 8.73011 31.7801 8.63703C31.5566 8.54396 31.317 8.49604 31.075 8.49604C30.833 8.49604 30.5934 8.54396 30.3699 8.63703C30.1465 8.73011 29.9438 8.8665 29.7733 9.03833L29.0217 9.79C28.7543 10.0603 28.4095 10.2407 28.0351 10.3064C27.6607 10.3721 27.2751 10.3198 26.9317 10.1567C26.5641 10.0368 26.2438 9.80384 26.0166 9.49104C25.7894 9.17823 25.667 8.80161 25.6667 8.415V7.33333C25.6667 6.8471 25.4735 6.38079 25.1297 6.03697C24.7859 5.69315 24.3196 5.5 23.8333 5.5H20.1667C19.6804 5.5 19.2141 5.69315 18.8703 6.03697C18.5265 6.38079 18.3333 6.8471 18.3333 7.33333V8.415C18.3318 8.79398 18.2129 9.16318 17.9929 9.4718C17.773 9.78041 17.4628 10.0133 17.105 10.1383C16.7616 10.3015 16.376 10.3538 16.0016 10.2881C15.6271 10.2224 15.2824 10.0419 15.015 9.77167L14.2633 9.02C14.0929 8.84816 13.8901 8.71177 13.6667 8.6187C13.4433 8.52562 13.2037 8.4777 12.9617 8.4777C12.7196 8.4777 12.48 8.52562 12.2566 8.6187C12.0332 8.71177 11.8304 8.84816 11.66 9.02L9.03833 11.6233C8.8665 11.7938 8.73011 11.9965 8.63703 12.2199C8.54396 12.4434 8.49604 12.683 8.49604 12.925C8.49604 13.167 8.54396 13.4066 8.63703 13.6301C8.73011 13.8535 8.8665 14.0562 9.03833 14.2267L9.79 14.9783C10.0603 15.2457 10.2407 15.5905 10.3064 15.9649C10.3721 16.3393 10.3198 16.7249 10.1567 17.0683C10.0316 17.4261 9.79874 17.7363 9.49013 17.9563C9.18152 18.1762 8.81232 18.2952 8.43333 18.2967H7.33333C6.8471 18.2967 6.38079 18.4898 6.03697 18.8336C5.69315 19.1775 5.5 19.6438 5.5 20.13V23.7967C5.5 24.2829 5.69315 24.7492 6.03697 25.093C6.38079 25.4368 6.8471 25.63 7.33333 25.63H8.415C8.79398 25.6315 9.16318 25.7504 9.4718 25.9704C9.78041 26.1904 10.0133 26.5006 10.1383 26.8583C10.3015 27.2017 10.3538 27.5873 10.2881 27.9618C10.2224 28.3362 10.0419 28.681 9.77167 28.9483L9.02 29.7C8.84816 29.8704 8.71177 30.0732 8.6187 30.2966C8.52562 30.52 8.4777 30.7596 8.4777 31.0017C8.4777 31.2437 8.52562 31.4833 8.6187 31.7067C8.71177 31.9301 8.84816 32.1329 9.02 32.3033L11.605 34.8883C11.7754 35.0602 11.9782 35.1966 12.2016 35.2896C12.425 35.3827 12.6646 35.4306 12.9067 35.4306C13.1487 35.4306 13.3883 35.3827 13.6117 35.2896C13.8351 35.1966 14.0379 35.0602 14.2083 34.8883L14.96 34.1367C15.2274 33.8664 15.5721 33.6859 15.9466 33.6202C16.321 33.5545 16.7066 33.6069 17.05 33.77C17.4078 33.8951 17.718 34.1279 17.9379 34.4365C18.1579 34.7452 18.2768 35.1144 18.2783 35.4933V36.6667C18.2783 37.1529 18.4715 37.6192 18.8153 37.963C19.1591 38.3068 19.6254 38.5 20.1117 38.5H23.7783C24.2646 38.5 24.7309 38.3068 25.0747 37.963C25.4185 37.6192 25.6117 37.1529 25.6117 36.6667V35.585C25.6132 35.206 25.7321 34.8368 25.9521 34.5282C26.172 34.2196 26.4822 33.9867 26.84 33.8617C27.1834 33.6985 27.569 33.6462 27.9434 33.7119C28.3179 33.7776 28.6626 33.9581 28.93 34.2283L29.6817 34.98C29.8521 35.1518 30.0549 35.2882 30.2783 35.3813C30.5017 35.4744 30.7413 35.5223 30.9833 35.5223C31.2254 35.5223 31.465 35.4744 31.6884 35.3813C31.9118 35.2882 32.1146 35.1518 32.285 34.98L34.87 32.395C35.0418 32.2246 35.1782 32.0218 35.2713 31.7984C35.3644 31.575 35.4123 31.3354 35.4123 31.0933C35.4123 30.8513 35.3644 30.6117 35.2713 30.3883C35.1782 30.1649 35.0418 29.9621 34.87 29.7917L34.1183 29.04C33.8481 28.7726 33.6676 28.4279 33.6019 28.0534C33.5362 27.679 33.5885 27.2934 33.7517 26.95C33.8767 26.5922 34.1096 26.282 34.4182 26.0621C34.7268 25.8421 35.096 25.7232 35.475 25.7217H36.6667C37.1529 25.7217 37.6192 25.5285 37.963 25.1847C38.3068 24.8409 38.5 24.3746 38.5 23.8883V20.1667C38.5 19.6804 38.3068 19.2141 37.963 18.8703C37.6192 18.5265 37.1529 18.3333 36.6667 18.3333Z" stroke="white" stroke-width="2" stroke-linecap="round" stroke-linejoin="round"/>
</svg>
