<svg width="44" height="44" viewBox="0 0 44 44" fill="none" xmlns="http://www.w3.org/2000/svg">
<path d="M31.1667 14.6667C31.1667 16.4797 30.6291 18.2519 29.6218 19.7594C28.6146 21.2668 27.183 22.4418 25.508 23.1356C23.833 23.8294 21.9899 24.0109 20.2117 23.6572C18.4336 23.3035 16.8002 22.4305 15.5182 21.1485C14.2362 19.8665 13.3632 18.2332 13.0095 16.455C12.6558 14.6768 12.8373 12.8337 13.5311 11.1587C14.2249 9.48375 15.3999 8.05211 16.9073 7.04486C18.4148 6.03762 20.187 5.5 22 5.5C24.4312 5.5 26.7628 6.46577 28.4819 8.18485C30.2009 9.90394 31.1667 12.2355 31.1667 14.6667ZM23.8334 23.8333H20.1667C16.7631 23.8333 13.4989 25.1854 11.0922 27.5921C8.68545 29.9988 7.33337 33.2631 7.33337 36.6667C7.33337 37.1529 7.52653 37.6192 7.87035 37.963C8.21416 38.3068 8.68048 38.5 9.16671 38.5H34.8334C35.3196 38.5 35.7859 38.3068 36.1297 37.963C36.4736 37.6192 36.6667 37.1529 36.6667 36.6667C36.6667 33.2631 35.3146 29.9988 32.9079 27.5921C30.5012 25.1854 27.237 23.8333 23.8334 23.8333Z" stroke="#676768" stroke-width="2" stroke-linecap="round" stroke-linejoin="round"/>
</svg>
