<svg width="44" height="44" viewBox="0 0 44 44" fill="none" xmlns="http://www.w3.org/2000/svg">
<path d="M35.53 26.3633C35.8908 26.7246 36.1769 27.1534 36.372 27.6252C36.567 28.0971 36.6672 28.6028 36.6667 29.1133C36.6667 30.1441 36.2572 31.1327 35.5283 31.8616C34.7994 32.5905 33.8108 33 32.78 33H11.22C10.1892 33 9.20065 32.5905 8.47175 31.8616C7.74286 31.1327 7.33338 30.1441 7.33338 29.1133C7.33293 28.6028 7.43308 28.0971 7.62811 27.6252C7.82315 27.1534 8.10924 26.7246 8.47004 26.3633L11 23.8333V16.5C11 13.5826 12.159 10.7847 14.2219 8.72183C16.2848 6.65893 19.0827 5.5 22 5.5C24.9174 5.5 27.7153 6.65893 29.7782 8.72183C31.8411 10.7847 33 13.5826 33 16.5V23.8333L35.53 26.3633ZM27.5 33H16.5C16.5 34.4587 17.0795 35.8576 18.111 36.8891C19.1424 37.9205 20.5414 38.5 22 38.5C23.4587 38.5 24.8577 37.9205 25.8891 36.8891C26.9206 35.8576 27.5 34.4587 27.5 33Z" stroke="#676768" stroke-width="2" stroke-linecap="round" stroke-linejoin="round"/>
</svg>
