<svg width="44" height="44" viewBox="0 0 44 44" fill="none" xmlns="http://www.w3.org/2000/svg">
<path d="M30.9833 23.8342C30.6517 25.4566 29.8869 26.9588 28.77 28.1813C27.6532 29.4038 26.226 30.301 24.6402 30.7775C23.0543 31.254 21.369 31.292 19.7633 30.8876C18.1576 30.4831 16.6914 29.6512 15.5205 28.4804C14.3497 27.3095 13.5178 25.8433 13.1133 24.2376C12.7089 22.6319 12.7469 20.9466 13.2234 19.3607C13.6999 17.7749 14.5971 16.3477 15.8196 15.2309C17.0421 14.114 18.5443 13.3492 20.1667 13.0176" stroke="white" stroke-width="2" stroke-linecap="round" stroke-linejoin="round"/>
<path d="M22.605 5.5H22C18.7366 5.5 15.5465 6.46771 12.8331 8.28075C10.1197 10.0938 8.00484 12.6707 6.756 15.6857C5.50715 18.7007 5.18039 22.0183 5.81705 25.219C6.45371 28.4197 8.02518 31.3597 10.3327 33.6673C12.6403 35.9748 15.5803 37.5463 18.781 38.183C21.9817 38.8196 25.2993 38.4929 28.3143 37.244C31.3293 35.9952 33.9062 33.8803 35.7193 31.1669C37.5323 28.4535 38.5 25.2634 38.5 22C38.5 21.7983 38.5 21.5967 38.5 21.395M27.5 16.5L22.9167 21.0833M27.5 16.5V11L33 5.5V11H38.5L33 16.5H27.5Z" stroke="white" stroke-width="2" stroke-linecap="round" stroke-linejoin="round"/>
</svg>
