<svg width="44" height="44" viewBox="0 0 44 44" fill="none" xmlns="http://www.w3.org/2000/svg">
<path d="M29.3334 19.25L25.8317 23.8333L23.8334 21.5417" stroke="white" stroke-width="2" stroke-linecap="round" stroke-linejoin="round"/>
<path d="M11 33V36.6667C11 37.1529 11.1932 37.6192 11.537 37.963C11.8808 38.3068 12.3471 38.5 12.8333 38.5H34.8333C35.3196 38.5 35.7859 38.3068 36.1297 37.963C36.4735 37.6192 36.6667 37.1529 36.6667 36.6667V7.33333C36.6667 6.8471 36.4735 6.38079 36.1297 6.03697C35.7859 5.69315 35.3196 5.5 34.8333 5.5H16.5" stroke="white" stroke-width="2" stroke-linecap="round" stroke-linejoin="round"/>
<path d="M14.6667 12.834H10.0834C9.35403 12.834 8.65456 13.1237 8.13883 13.6395C7.6231 14.1552 7.33337 14.8547 7.33337 15.584C7.33337 16.3134 7.6231 17.0128 8.13883 17.5286C8.65456 18.0443 9.35403 18.334 10.0834 18.334H11.9167C12.6461 18.334 13.3455 18.6237 13.8613 19.1395C14.377 19.6552 14.6667 20.3547 14.6667 21.084C14.6667 21.8134 14.377 22.5128 13.8613 23.0286C13.3455 23.5443 12.6461 23.834 11.9167 23.834H7.33337" stroke="white" stroke-width="2" stroke-linecap="round" stroke-linejoin="round"/>
<path d="M11 25.6667V23.8333M18.3333 31.1667H29.3333M11 12.8333V11" stroke="white" stroke-width="2" stroke-linecap="round" stroke-linejoin="round"/>
</svg>
