<svg width="44" height="44" viewBox="0 0 44 44" fill="none" xmlns="http://www.w3.org/2000/svg">
<path d="M29.3334 23.834H33.9167C34.6461 23.834 35.3455 23.5443 35.8612 23.0286C36.377 22.5129 36.6667 21.8134 36.6667 21.084C36.6667 20.3547 36.377 19.6552 35.8612 19.1395C35.3455 18.6238 34.6461 18.334 33.9167 18.334H32.0834C31.354 18.334 30.6546 18.0443 30.1388 17.5286C29.6231 17.0129 29.3334 16.3134 29.3334 15.584C29.3334 14.8547 29.6231 14.1552 30.1388 13.6395C30.6546 13.1238 31.354 12.834 32.0834 12.834H36.6667" stroke="white" stroke-width="2" stroke-linecap="round" stroke-linejoin="round"/>
<path d="M25.6667 5.5H9.16671C8.68048 5.5 8.21416 5.69315 7.87035 6.03697C7.52653 6.38079 7.33337 6.8471 7.33337 7.33333V38.5L11.6234 36.6667L15.895 38.5L20.1667 36.6667L24.4384 38.5L28.71 36.6667L33 38.5V33" stroke="white" stroke-width="2" stroke-linecap="round" stroke-linejoin="round"/>
<path d="M22 20.1667H14.6666M33 12.8333V11M33 25.6667V23.8333M22 27.5H14.6666" stroke="white" stroke-width="2" stroke-linecap="round" stroke-linejoin="round"/>
</svg>
