<svg width="1000" height="1000" viewBox="0 0 1000 1000" fill="none" xmlns="http://www.w3.org/2000/svg">
<path d="M508.68 135.22C523 121 537.18 106.89 551.26 92.65C554.19 89.65 556.85 89.82 560.35 91.46C569.27 95.63 578.45 99.25 587.3 103.55C592 105.82 595.57 105.55 600.48 103.24C616.14 96 632.16 89.48 648.3 83.35C653.18 81.5 656.19 79.35 657.95 74.35C661.74 63.48 666.2 52.84 670.53 41.72H736.2C740.46 52.72 744.93 63.72 748.92 74.86C750.58 79.49 753.44 81.49 757.97 83.23C774.41 89.53 790.74 96.17 806.76 103.47C811.31 105.54 814.76 105.87 819.01 103.87C829.74 98.87 840.59 94.15 851.01 89.51L897.37 136.87C893.2 146.33 888.66 157.25 883.57 167.87C881.27 172.69 882 176.36 884.15 181.14C891.25 196.87 897.77 212.88 903.94 229C905.66 233.5 907.48 236.48 912.28 238.12C921.91 241.4 931.28 245.53 940.81 249.03C944.51 250.39 946.28 252.4 946.25 256.46C946.14 276.16 946.2 295.86 946.2 316.46C935.25 320.66 924.6 324.97 913.77 328.8C908.15 330.8 905.58 334.14 903.53 339.95C898.1 355.282 891.871 370.319 884.87 385C882.12 390.77 881.16 395.21 884.05 401C888.99 411 893.23 421.37 897.4 430.76L850.45 477.65C841.45 473.71 830.79 469.46 820.53 464.43C815.12 461.78 811.05 462.19 805.53 464.75C790.19 471.88 774.42 478.13 758.59 484.13C753.78 485.96 750.59 487.98 748.8 493.08C745.02 503.98 740.58 514.65 736.23 525.9H670.59C666.47 515.37 662.01 504.78 658.21 493.97C656.36 488.69 653.5 486.05 648.08 484.04C631.9 478.04 615.96 471.34 600.24 464.22C595.79 462.22 592.42 461.55 587.99 463.69C579.12 467.96 569.92 471.54 561.06 475.81C556.76 477.89 553.84 477.64 550.34 474.05C536.81 460.19 522.94 446.67 508.63 432.45C513.36 421.75 517.76 411.18 522.7 400.88C525.27 395.52 524.92 391.32 522.3 385.76C515.11 370.45 508.64 354.76 502.86 338.84C501.01 333.73 498.69 330.84 493.86 329.11C485.23 326.02 476.81 322.34 468.13 319.43C462.86 317.66 460.59 314.97 460.72 309.14C461.08 292.14 460.98 275.14 460.77 258.14C460.7 253.01 462.3 250.14 467.41 248.4C476.41 245.4 485.17 241.61 494.09 238.34C498.5 236.72 500.9 234.22 502.68 229.44C508.83 212.96 515.68 196.71 522.87 180.64C524.87 176.21 525.53 172.82 523.38 168.32C518.28 157.66 513.73 146.72 508.68 135.22ZM845.86 284.13C846 205.25 782.37 141.18 703.68 141C684.948 140.965 666.394 144.622 649.077 151.764C631.76 158.905 616.021 169.391 602.76 182.62C589.499 195.849 578.977 211.563 571.794 228.863C564.611 246.163 560.909 264.708 560.9 283.44C560.77 362.35 624.4 426.44 703 426.59C781.6 426.74 845.69 362.92 845.86 284.13Z" fill="white"/>
<path d="M203.75 485.54C206.39 504.78 198.07 517.78 189.02 530.88C154.807 580.353 120.8 629.97 87 679.73C78.4 692.34 67.27 700.09 51.55 700.16C44.4671 700.252 37.4848 698.477 31.3061 695.013C25.1274 691.549 19.9704 686.518 16.3541 680.427C12.7379 674.336 10.7901 667.4 10.7069 660.317C10.6237 653.234 12.4079 646.254 15.88 640.08C18 636.23 20.62 632.63 23.11 628.99C54.39 583.27 85.7233 537.583 117.11 491.93C121.041 486.452 123.14 479.872 123.11 473.13C124.083 399.043 125.25 324.933 126.61 250.8C127.01 228.07 141.78 211.37 163.71 209.8C170.85 209.3 178.61 211.14 185.44 213.66C212.82 223.78 240.01 234.43 267.12 245.25C273.3 247.72 278.49 247.62 284.52 244.76C305.99 234.58 327.52 224.56 349.35 215.09C371.43 205.48 395.71 215.68 404.07 237.44C411.76 257.44 403.22 279.08 383.13 288.88C367.27 296.65 351.05 303.63 335 311C322.66 316.66 310.27 322.24 298 328.06C285 334.25 272.05 334.68 258.61 329.06C243.56 322.83 228.23 317.25 213.01 311.44C211.152 310.866 209.266 310.385 207.36 310C207.07 314.07 206.67 317.33 206.63 320.6C206.31 343.03 206.29 365.48 205.63 387.91C205.46 394.27 207.52 397.59 213.35 400.22C241.5 412.95 269.29 426.47 297.52 439.02C317.52 447.88 326.82 462.21 327.22 484.27C328.09 532.19 330.22 580.09 331.77 628C332.48 650.29 318.44 668.41 298.31 671.44C277.15 674.63 257.66 663.12 252.38 643.26C250.32 635.49 250.17 627.12 249.9 619C248.76 585 247.6 551 247.17 517.05C247.06 508.35 244.55 503.38 236.27 500.24C225.91 496.32 216 491.15 203.75 485.54Z" fill="white"/>
<path d="M853.77 525L989.28 468.12V959.66H853.77V525Z" fill="white"/>
<path d="M568.65 959.94H433.92C433.66 956.6 433.23 953.67 433.23 950.75C433.23 841.663 433.19 732.57 433.11 623.47C433.11 617.59 433.76 613.61 440.18 610.83C481.27 593.01 522.18 574.69 563.09 556.55C564.61 555.88 566.21 555.38 568.65 554.47V959.94Z" fill="white"/>
<path d="M778.76 960H644.07V601.65H778.76V960Z" fill="white"/>
<path d="M223.93 714.51H358.57V959.68H223.93V714.51Z" fill="white"/>
<path d="M148.82 808.6V959.72H13.82V808.6H148.82Z" fill="white"/>
<path d="M181.64 40C219 39.62 250 69.87 250.7 107.34C251.4 144.81 220.49 176.51 182.7 176.93C145.28 177.35 114.53 147.2 113.93 109.47C113.747 100.445 115.36 91.4731 118.676 83.0771C121.992 74.6811 126.945 67.0282 133.245 60.5637C139.546 54.0992 147.069 48.9521 155.378 45.4218C163.686 41.8915 172.613 40.0485 181.64 40Z" fill="white"/>
<path d="M665.08 283.29C665.096 278.281 666.098 273.325 668.03 268.704C669.963 264.083 672.786 259.889 676.34 256.36C679.895 252.831 684.109 250.036 688.744 248.137C693.378 246.238 698.341 245.27 703.35 245.29C713.579 245.29 723.39 249.354 730.623 256.587C737.856 263.82 741.92 273.631 741.92 283.86C741.92 294.089 737.856 303.9 730.623 311.133C723.39 318.366 713.579 322.43 703.35 322.43C681.87 322.4 664.87 305 665.08 283.29Z" fill="white"/>
</svg>
