<svg width="44" height="44" viewBox="0 0 44 44" fill="none" xmlns="http://www.w3.org/2000/svg">
<path d="M33 29.3333V36.6667C33 37.1529 32.8068 37.6192 32.463 37.963C32.1192 38.3068 31.6529 38.5 31.1667 38.5H7.33333C6.8471 38.5 6.38079 38.3068 6.03697 37.963C5.69315 37.6192 5.5 37.1529 5.5 36.6667V7.33333C5.5 6.8471 5.69315 6.38079 6.03697 6.03697C6.38079 5.69315 6.8471 5.5 7.33333 5.5H20.1667" stroke="white" stroke-width="2" stroke-linecap="round" stroke-linejoin="round"/>
<path d="M38.5 11L27.5 22M25.6667 31.1667H12.8334M20.1667 23.8333H12.8334" stroke="white" stroke-width="2" stroke-linecap="round" stroke-linejoin="round"/>
<path d="M28.325 11.916H28.5083" stroke="white" stroke-width="3" stroke-linecap="round" stroke-linejoin="round"/>
<path d="M37.4917 21.084H37.675" stroke="white" stroke-width="3" stroke-linecap="round" stroke-linejoin="round"/>
</svg>
