<svg width="1000" height="1000" viewBox="0 0 1000 1000" fill="none" xmlns="http://www.w3.org/2000/svg">
<path d="M996 565.92C971.34 575.44 946.83 585.35 921.94 594.21C914.66 596.81 912.23 600.96 910.76 607.77C901.503 650.39 885.455 691.244 863.23 728.77C862.14 730.63 860.8 732.34 858.94 735.03C851.94 722.86 845.32 711.45 838.73 700.03C822.44 671.82 805.94 643.73 790.08 615.27C787.75 611.09 786.76 604.71 788.08 600.17C836.08 430.01 732.55 258.66 559.3 222.17C397.42 188.12 233.39 298.83 205.43 461C180.79 604 252.73 736.28 386.07 793.29C388.07 794.15 390 795.29 392.33 796.43C375.54 833.26 347.33 863.94 338.23 906.54C315.78 894.14 294 882.42 272.6 870.05C267.6 867.15 263.78 866.56 258.48 868.99C236.22 879.22 213.69 888.87 191.43 899.09C186.24 901.48 182.97 901.09 178.83 896.89C159.21 876.79 139.357 856.92 119.27 837.28C115.2 833.28 114.38 830.13 116.85 824.81C127.13 802.57 136.78 780.05 147 757.81C149.42 752.54 149.16 748.54 146 743.6C118.56 701.22 99.25 655.4 88.94 605.91C87.69 599.91 84.86 596.73 79.02 594.57C53.92 585.32 29.02 575.57 4.02 565.95V465.17C6.83264 464.632 9.61086 463.927 12.34 463.06C34.63 454.58 56.79 445.77 79.18 437.57C85.11 435.4 87.69 431.96 88.94 426.04C99.1548 377.319 118.37 330.932 145.6 289.26C149.29 283.59 149.3 279.17 146.6 273.26C136.48 251.26 126.93 229.09 116.87 207.11C114.7 202.38 114.74 199.32 118.76 195.39C139.053 175.57 159.133 155.497 179 135.17C183.16 130.9 186.43 130.75 191.54 133.08C213.82 143.26 236.18 153.28 258.78 162.7C262.47 164.24 268.53 164.12 271.78 162.06C314.541 134.756 361.781 115.204 411.33 104.3C414.86 103.52 419.08 99.72 420.48 96.3C429.87 73.3 438.73 50.15 447.43 26.91C449.43 21.65 452.01 19.47 457.88 19.54C485.96 19.84 514.043 19.84 542.13 19.54C548.02 19.47 550.6 21.67 552.57 26.93C561.27 50.17 570.12 73.36 579.52 96.32C580.92 99.73 585.16 103.51 588.7 104.32C637.993 114.947 684.943 134.447 727.26 161.87C732.61 165.33 736.81 165.38 742.34 162.87C763.43 153.18 784.83 144.17 805.83 134.31C812.89 131 817.41 131.17 823.17 137.22C841.42 156.38 860.25 175 879.27 193.41C884.39 198.41 885.7 202.13 882.42 209.01C872.42 229.96 863.69 251.48 853.85 272.49C850.76 279.09 850.85 283.91 854.94 290.16C880.958 329.918 899.527 374.076 909.74 420.48C912.02 430.8 916.09 436.39 926.25 439.77C949.73 447.58 972.78 456.68 996 465.25V565.92Z" fill="white"/>
<path d="M643.56 980.42C574.8 980.42 506.05 980.54 437.29 980.42C402.5 980.34 376.99 959.18 371.05 925.91C368.11 909.51 372.88 894.75 381.05 880.66C411.117 828.76 441.117 776.813 471.05 724.82C509.75 657.82 548.29 590.68 587.23 523.82C608.9 486.59 654.71 478.05 685.56 505.38C691.52 510.813 696.583 517.155 700.56 524.17C769.4 642.977 838.107 761.92 906.68 881C934.28 929 904.27 980.32 848.85 980.43C780.423 980.543 711.993 980.54 643.56 980.42ZM670.14 711.59H672.65C672.65 685.48 672.46 659.37 672.75 633.26C672.85 623.81 670.5 615.56 662.12 610.94C650.75 604.67 638.38 604.75 626.82 610.25C616.06 615.36 614.2 625.46 614.64 636.52C616.64 688.4 618.45 740.3 620.4 792.18C620.97 807.36 630.68 817.68 643.95 817.59C657.03 817.49 666.2 807.74 666.86 792.8C668.05 765.73 669.06 738.66 670.14 711.59ZM614.22 901.15C614.128 908.978 617.117 916.529 622.542 922.173C627.967 927.818 635.394 931.103 643.22 931.32C659.48 931.72 673.74 917.68 673.66 901.32C673.552 893.494 670.373 886.023 664.808 880.52C659.243 875.016 651.737 871.92 643.91 871.9C640.032 871.84 636.18 872.553 632.58 873.996C628.979 875.44 625.702 877.585 622.939 880.307C620.176 883.029 617.982 886.274 616.485 889.852C614.988 893.431 614.218 897.271 614.22 901.15Z" fill="white"/>
</svg>
