<svg width="44" height="44" viewBox="0 0 44 44" fill="none" xmlns="http://www.w3.org/2000/svg">
<path d="M26.0875 16.5956C26.0868 16.7154 26.0823 16.8352 26.0741 16.9547C26.07 17.0138 26.0638 17.0727 26.0575 17.1316C26.0363 17.3313 26.0833 16.9669 26.0523 17.1645C26.0135 17.4122 25.9504 17.6556 25.8727 17.8938C25.855 17.9482 25.8353 18.0018 25.8156 18.0555C25.8039 18.0873 25.7304 18.2672 25.8066 18.0871C25.7624 18.1915 25.7126 18.2933 25.6611 18.3942C25.5502 18.6114 25.4186 18.8177 25.2757 19.0152C25.1635 19.1702 25.3758 18.8913 25.2565 19.0407C25.2215 19.0845 25.185 19.1271 25.1485 19.1696C25.0756 19.2546 24.9983 19.3357 24.9196 19.4153C24.8408 19.495 24.7579 19.5704 24.6738 19.6443C24.6317 19.6813 24.5884 19.7168 24.545 19.7522C24.4802 19.8037 24.4867 19.799 24.5645 19.738C24.5346 19.7605 24.5045 19.7826 24.4741 19.8044C24.2916 19.9365 24.0977 20.0521 23.8984 20.1569C23.7982 20.2097 23.6952 20.2569 23.5913 20.3023C23.7702 20.2241 23.5918 20.2992 23.5598 20.3114C23.4885 20.3385 23.4161 20.3626 23.3436 20.3863C23.1234 20.4581 22.897 20.5094 22.6688 20.5481C22.4717 20.5815 22.8354 20.5296 22.6359 20.5533C22.5771 20.5603 22.5181 20.565 22.459 20.5698C22.3196 20.5812 22.1795 20.5837 22.0396 20.5828C21.9201 20.5821 21.8008 20.5747 21.6816 20.565C21.6228 20.5599 21.564 20.5536 21.5054 20.5463C21.7056 20.5701 21.5087 20.5442 21.4734 20.5382C21.2266 20.4964 20.9843 20.4305 20.7475 20.35C20.6935 20.3317 20.6401 20.3114 20.5868 20.291C20.4053 20.2219 20.7339 20.3571 20.5564 20.2795C20.4527 20.2341 20.3515 20.1832 20.2513 20.1305C20.0355 20.017 19.8309 19.8832 19.6353 19.738C19.7896 19.8525 19.6378 19.7382 19.6114 19.7167C19.5683 19.681 19.5258 19.6445 19.4839 19.6073C19.3997 19.5334 19.3196 19.4551 19.2409 19.3755C19.1621 19.2958 19.0877 19.212 19.0147 19.1271C18.9783 19.0845 18.9433 19.0407 18.9083 18.9969C19.0334 19.1535 18.8806 18.9549 18.8588 18.9239C18.7288 18.7398 18.6154 18.5444 18.5129 18.3438C18.4872 18.2934 18.4632 18.2421 18.4393 18.1908C18.4248 18.1596 18.3516 17.9812 18.4253 18.1617C18.3749 18.0382 18.3319 17.9118 18.2921 17.7845C18.2229 17.5631 18.1743 17.3357 18.1384 17.1066C18.1696 17.306 18.1398 17.1084 18.136 17.0728C18.1301 17.0138 18.1253 16.9546 18.1216 16.8953C18.112 16.7555 18.1112 16.6152 18.1138 16.4752C18.116 16.356 18.1249 16.237 18.136 16.1184C18.1393 16.0831 18.1672 15.8844 18.1384 16.0846C18.1467 16.0267 18.1572 15.9692 18.1677 15.9117C18.2125 15.6659 18.2813 15.4249 18.3645 15.1894C18.3835 15.1356 18.4045 15.0826 18.4254 15.0296C18.354 15.2105 18.4251 15.0321 18.4394 15.0005C18.4859 14.8974 18.538 14.7969 18.5918 14.6974C18.6455 14.5984 18.7044 14.5022 18.7649 14.4073C18.7951 14.3599 18.827 14.3136 18.8588 14.2674C18.8802 14.2364 19.0317 14.036 18.9084 14.1943C19.0461 14.0176 19.1993 13.8532 19.3603 13.6977C19.4409 13.6199 19.5256 13.5464 19.6114 13.4746C19.6373 13.4529 19.7885 13.3367 19.6353 13.4532C19.6948 13.408 19.7562 13.3651 19.8179 13.3227C20.0036 13.1947 20.2005 13.0836 20.4024 12.9835C20.4533 12.9587 20.5047 12.9347 20.5565 12.9117C20.733 12.832 20.4062 12.9715 20.5868 12.9002C20.7111 12.8511 20.8382 12.8097 20.966 12.7714C21.0768 12.7383 21.1892 12.7113 21.302 12.6864C21.3588 12.6738 21.4161 12.6634 21.4734 12.653C21.5083 12.6466 21.7057 12.6186 21.5054 12.6449C21.7622 12.6112 22.0218 12.6033 22.2803 12.6114C22.3992 12.6151 22.5177 12.6254 22.6359 12.638C22.8357 12.6592 22.4713 12.6122 22.6688 12.6432C22.7265 12.6522 22.7837 12.6634 22.841 12.6745C23.0859 12.7223 23.3257 12.794 23.5598 12.8799C23.5916 12.8916 23.7715 12.9651 23.5914 12.8889C23.6436 12.911 23.6951 12.935 23.7465 12.959C23.8489 13.0067 23.9487 13.06 24.0474 13.115C24.1458 13.1697 24.2412 13.2297 24.3353 13.2913C24.3823 13.3221 24.4282 13.3545 24.4741 13.3869C24.5015 13.4063 24.6532 13.5226 24.5012 13.4041C24.6779 13.5418 24.8423 13.695 24.9978 13.8561C25.0757 13.9366 25.1491 14.0213 25.221 14.1071C25.2427 14.133 25.3588 14.2843 25.2423 14.131C25.2762 14.1757 25.3086 14.2215 25.341 14.2674C25.471 14.4515 25.5844 14.6468 25.6868 14.8474C25.7126 14.8979 25.7366 14.9492 25.7605 15.0005C25.775 15.0317 25.8482 15.21 25.7744 15.0296C25.8176 15.1353 25.8551 15.2434 25.8905 15.352C25.9623 15.5722 26.0136 15.7986 26.0523 16.0268C26.0857 16.224 26.0338 15.8602 26.0575 16.0597C26.0645 16.1186 26.0693 16.1776 26.0741 16.2366C26.0838 16.356 26.0868 16.4758 26.0875 16.5956C26.0901 17.0055 26.4276 17.3475 26.8395 17.3475C27.2475 17.3475 27.594 17.0055 27.5914 16.5956C27.5783 14.4865 26.3375 12.4871 24.4025 11.6131C22.3795 10.6993 20.0268 11.0755 18.3789 12.5579C16.7937 13.9838 16.2127 16.3383 16.8953 18.3477C17.226 19.3214 17.8303 20.2079 18.6352 20.8506C19.5074 21.5469 20.5147 21.9456 21.6227 22.0634C23.151 22.2258 24.6905 21.6503 25.821 20.6333C26.9522 19.6157 27.5819 18.1073 27.5914 16.5956C27.594 16.1857 27.2474 15.8436 26.8394 15.8436C26.4276 15.8436 26.0901 16.1858 26.0875 16.5956Z" fill="white"/>
<path d="M27.3844 22.9739C27.4873 23.0549 27.5884 23.1395 27.6876 23.2273C27.7071 23.2446 27.8684 23.3978 27.733 23.2669C27.7809 23.3133 27.8276 23.3614 27.8743 23.4097C28.0766 23.6184 28.2643 23.8482 28.4413 24.0892C28.5232 24.2006 28.6006 24.3167 28.6765 24.4342C28.5694 24.2683 28.6941 24.4664 28.7084 24.4905C28.7441 24.5516 28.7791 24.6134 28.8132 24.6758C28.9628 24.9467 29.0934 25.2329 29.211 25.5267C29.238 25.595 29.2641 25.6639 29.2893 25.7333C29.3746 25.965 29.2341 25.5607 29.3113 25.7973C29.3577 25.9395 29.3984 26.0844 29.4372 26.2301C29.5223 26.5497 29.5843 26.8782 29.6313 27.2095C29.6357 27.2404 29.6653 27.5004 29.6421 27.2795C29.6504 27.3582 29.6565 27.4371 29.6626 27.5161C29.675 27.6755 29.6808 27.8357 29.6845 27.9957C29.6863 28.0784 29.6859 28.1612 29.6859 28.2439V32.8763C29.6859 32.9351 29.6844 32.9641 29.6821 33.0226C29.6726 33.2643 29.7128 32.8291 29.6786 33.0645C29.6685 33.1336 29.6532 33.2014 29.6378 33.2689C29.6287 33.3089 29.5606 33.5276 29.6344 33.312C29.5912 33.4384 29.5338 33.5566 29.4726 33.6705C29.3698 33.8619 29.5727 33.5271 29.4519 33.7012C29.4041 33.7701 29.3506 33.8324 29.2965 33.8934C29.1594 34.048 29.4232 33.786 29.2716 33.919C29.2265 33.9585 29.1786 33.9928 29.1308 34.0271C29.0826 34.0615 29.032 34.0903 28.9816 34.119C29.1516 34.0223 28.9808 34.1099 28.9468 34.1232C28.8925 34.1443 28.8369 34.1589 28.7814 34.1736C28.5922 34.2234 28.9427 34.1584 28.7476 34.1779C28.7071 34.182 28.6659 34.1827 28.6253 34.1827H15.5263C15.4744 34.1827 15.4601 34.1811 15.4084 34.1779C15.2129 34.1662 15.5649 34.2158 15.3746 34.1736C15.3187 34.1612 15.2638 34.1422 15.2092 34.1232C15.1732 34.1099 15.1376 34.0953 15.1024 34.0792C15.1912 34.1287 15.1983 34.1323 15.1238 34.0902C15.0231 34.0329 14.9295 33.9585 14.8393 33.8794C14.9892 34.0109 14.8455 33.8775 14.8189 33.8475C14.7782 33.8017 14.7411 33.7513 14.704 33.7012C14.5789 33.5317 14.7909 33.8578 14.6834 33.6705C14.6514 33.6147 14.6236 33.5554 14.5959 33.4963C14.568 33.4368 14.5448 33.3743 14.5215 33.3119C14.6027 33.5299 14.5138 33.2499 14.5028 33.2015C14.4874 33.1335 14.4773 33.064 14.4672 32.9946C14.5013 33.2292 14.4729 32.997 14.471 32.9501C14.4698 32.9198 14.47 32.8891 14.47 32.8586V28.4045C14.47 28.1607 14.471 27.9177 14.4832 27.6742C14.4872 27.5946 14.4934 27.5152 14.4996 27.4358C14.502 27.405 14.5302 27.1425 14.5049 27.3631C14.5227 27.2078 14.5468 27.0537 14.5729 26.9003C14.6288 26.5723 14.7081 26.2509 14.8013 25.9365C14.8226 25.8645 14.8459 25.7936 14.869 25.7225C14.8039 25.9217 14.8836 25.6873 14.8937 25.6598C14.9447 25.5214 15.0012 25.3862 15.0593 25.2522C15.1848 24.9635 15.3301 24.6885 15.4867 24.4243C15.607 24.221 15.3938 24.5663 15.521 24.3697C15.559 24.3109 15.5986 24.2536 15.6381 24.1963C15.7172 24.0818 15.8007 23.972 15.8854 23.864C15.9702 23.756 16.0592 23.653 16.1493 23.5518C16.1946 23.5015 16.2406 23.4521 16.2872 23.4037C16.3105 23.3791 16.5152 23.1802 16.3767 23.3109C16.49 23.204 16.6078 23.1047 16.7272 23.0086C17.0622 22.7389 17.2007 22.2083 16.9908 21.7654C16.7958 21.3538 16.3213 21.1689 15.9852 21.4395C14.1466 22.9195 13 25.4451 13 28.1693V32.1875C13 32.948 13.015 33.6462 13.3003 34.3533C13.7131 35.3766 14.6398 36 15.5475 36H28.6211C29.6888 36 30.6188 35.1668 30.9996 33.9486C31.191 33.3365 31.156 32.6735 31.156 32.0303V28.1575C31.156 26.7506 30.8468 25.3587 30.2777 24.142C29.7567 23.0282 29.0012 22.0947 28.1264 21.4048C27.7883 21.1381 27.3172 21.3161 27.1208 21.7307C26.9123 22.1705 27.0473 22.708 27.3844 22.9739ZM37.53 21.6189C37.5289 21.7625 37.5223 21.906 37.5101 22.0488C37.5306 21.8077 37.5083 22.0419 37.5018 22.0861C37.4917 22.1548 37.4784 22.2227 37.4651 22.2906C37.4389 22.4249 37.4035 22.5563 37.3653 22.686C37.3007 22.9053 37.4314 22.5094 37.3541 22.7215C37.324 22.8042 37.2896 22.8845 37.2546 22.9642C37.2024 23.0833 37.1424 23.1969 37.0801 23.3082C36.9742 23.4974 37.1793 23.1601 37.0628 23.3392C37.0286 23.3917 36.9921 23.4419 36.9557 23.492C36.8829 23.5924 36.8036 23.6852 36.7225 23.7752C36.6819 23.8202 36.6394 23.8625 36.5969 23.9048C36.7494 23.7531 36.5556 23.9338 36.5239 23.9599C36.4325 24.0351 36.3363 24.1009 36.2389 24.1633C36.19 24.1947 36.1396 24.2228 36.0893 24.2507C36.263 24.1541 36.0913 24.2453 36.0588 24.26C35.9535 24.3074 35.8452 24.3438 35.7364 24.3763C35.6813 24.3927 35.6255 24.4053 35.5699 24.4179C35.4864 24.4341 35.4949 24.4333 35.5955 24.4156C35.5574 24.421 35.5191 24.4255 35.4808 24.4291C35.3645 24.4415 35.2474 24.4414 35.1307 24.4373C35.0727 24.4353 35.0149 24.4291 34.9572 24.423C34.7623 24.4023 35.1174 24.4566 34.9257 24.4179C34.8143 24.3954 34.7047 24.3614 34.5961 24.3236C34.5424 24.3049 34.4896 24.2825 34.4368 24.26C34.4019 24.2448 34.3672 24.2287 34.3328 24.2119C34.4229 24.2602 34.4306 24.2639 34.3559 24.2227C34.2556 24.1668 34.1591 24.1008 34.0645 24.0318C34.0173 23.9974 33.9717 23.9599 33.9261 23.9224C33.8984 23.8997 33.7495 23.7619 33.8987 23.9048C33.7118 23.7257 33.5466 23.514 33.3986 23.2866C33.5165 23.4677 33.4037 23.2873 33.3844 23.2527C33.3532 23.1971 33.3245 23.1394 33.2959 23.0817C33.2382 22.9659 33.1884 22.8444 33.1415 22.7215C33.061 22.5112 33.1982 22.9038 33.1303 22.686C33.1102 22.6218 33.0931 22.5562 33.076 22.4907C33.0356 22.336 33.0071 22.1769 32.9836 22.0171C32.9487 21.7809 32.9999 22.2186 32.9794 21.9782C32.9733 21.9069 32.9706 21.8353 32.9678 21.7637C32.9623 21.6194 32.9667 21.4749 32.9744 21.3309C32.9768 21.2875 33.0025 21.0481 32.9744 21.2904C32.9824 21.2209 32.9937 21.152 33.005 21.0832C33.0309 20.9246 33.0688 20.7695 33.1112 20.6165C33.1222 20.5769 33.1941 20.3614 33.1188 20.5787C33.1405 20.5161 33.165 20.4549 33.1895 20.3939C33.2382 20.2723 33.2949 20.1558 33.3541 20.0416C33.3836 19.9846 33.4155 19.9297 33.4474 19.8749C33.3382 20.0627 33.4456 19.88 33.4678 19.8471C33.5493 19.7263 33.6395 19.6149 33.7325 19.5078C33.7725 19.4619 33.8144 19.4186 33.8562 19.3755C33.9193 19.313 33.9128 19.319 33.8369 19.3935C33.8662 19.3669 33.896 19.3409 33.9262 19.3156C34.0315 19.2255 34.1431 19.1474 34.2567 19.0747C34.3056 19.0433 34.3559 19.0153 34.4063 18.9873C34.2254 19.0879 34.4528 18.9712 34.4895 18.9556C34.6316 18.8953 34.7782 18.8534 34.9257 18.8201C35.1168 18.7769 34.7627 18.8403 34.9572 18.815C35.0342 18.805 35.1117 18.8013 35.1891 18.7986C35.3248 18.7938 35.4607 18.8049 35.5956 18.8224C35.4005 18.7971 35.5899 18.8246 35.6258 18.8327C35.6998 18.8494 35.7728 18.8721 35.8455 18.8956C35.9175 18.9189 35.9883 18.9481 36.0588 18.9779C36.0937 18.9932 36.1283 19.0092 36.1627 19.0261C36.0726 18.9777 36.0649 18.9741 36.1397 19.0153C36.2567 19.0804 36.3685 19.1587 36.4778 19.2416C36.5244 19.277 36.5694 19.3156 36.6144 19.3541C36.6796 19.4133 36.6737 19.4063 36.5969 19.3332C36.6254 19.3611 36.6536 19.3896 36.6813 19.4187C36.779 19.5195 36.8691 19.6309 36.9557 19.746C37.0053 19.8118 37.0514 19.8814 37.0969 19.9514C36.9742 19.7629 37.1204 20.0025 37.1415 20.0416C37.2125 20.1736 37.2737 20.3131 37.3306 20.4549C37.3458 20.493 37.4172 20.7063 37.3454 20.488C37.3734 20.573 37.3968 20.6601 37.4196 20.7474C37.46 20.9021 37.4885 21.0611 37.512 21.221C37.5252 21.3242 37.5245 21.3136 37.5102 21.1892C37.5146 21.2364 37.5182 21.2836 37.5212 21.331C37.5278 21.4267 37.5293 21.5229 37.53 21.6189C37.5338 22.1141 37.8614 22.5275 38.265 22.5275C38.6628 22.5275 39.0038 22.1143 39 21.6189C38.9898 20.2954 38.5341 19.0041 37.7207 18.1336C36.8415 17.1927 35.73 16.8541 34.5912 17.0563C33.5438 17.2424 32.6164 18.0974 32.0553 19.1813C31.4734 20.3052 31.3463 21.7768 31.6757 23.0393C31.9503 24.0916 32.526 24.9722 33.276 25.5654C34.0618 26.1871 34.9965 26.3428 35.9044 26.1815C37.6876 25.8646 38.9833 23.7871 39 21.6189C39.0038 21.1236 38.6628 20.7103 38.265 20.7103C37.8614 20.7103 37.5338 21.1237 37.53 21.6189Z" fill="white"/>
<path d="M39.061 26.2754C39.1137 26.3168 39.1659 26.3593 39.2175 26.4028C39.2389 26.4208 39.4039 26.5764 39.2637 26.441C39.3617 26.5357 39.454 26.639 39.544 26.7447C39.6341 26.8505 39.7178 26.9642 39.799 27.0801C39.816 27.1044 39.9421 27.3064 39.835 27.1319C39.8851 27.2136 39.9314 27.2987 39.9771 27.3841C40.0459 27.5129 40.1068 27.6476 40.1649 27.7838C40.1941 27.8523 40.2205 27.9224 40.2468 27.9926C40.1714 27.792 40.2569 28.0266 40.2666 28.0575C40.3122 28.2037 40.3488 28.3539 40.3822 28.5048C40.399 28.5811 40.4127 28.6583 40.4264 28.7355C40.4336 28.7764 40.4764 29.1133 40.452 28.8819C40.5232 29.556 40.4798 30.2655 40.4798 30.9428V32.5948C40.4798 32.6438 40.4778 32.6925 40.4739 32.7412C40.4891 32.6134 40.4881 32.6015 40.4712 32.7057C40.4627 32.7518 40.3933 32.9663 40.4714 32.7476C40.4488 32.8111 40.4189 32.8702 40.3892 32.929C40.2906 33.1241 40.4946 32.7873 40.3686 32.9562C40.343 32.9906 40.1996 33.1327 40.3532 32.9909C40.3081 33.0325 40.2585 33.0662 40.2093 33.0996C40.044 33.2118 40.3609 33.0388 40.1798 33.1114C40.1413 33.1268 39.9535 33.1635 40.1531 33.1335C40.1169 33.1389 40.0684 33.1406 40.032 33.1406H33.2715C32.8571 33.1406 32.5114 33.5635 32.5114 34.0703C32.5114 34.5771 32.8571 35 33.2715 35H39.6467C40.1824 35 40.7131 34.9725 41.1654 34.555C41.6775 34.0824 42 33.3886 42 32.5902V29.6059C42 28.4362 41.7604 27.2939 41.2204 26.3182C40.8523 25.6533 40.3802 25.1034 39.8284 24.6701C39.4793 24.396 38.9911 24.5804 38.7884 25.0036C38.5723 25.4545 38.713 26.0022 39.061 26.2754ZM10.7416 21.726C10.7405 21.8729 10.7337 22.0197 10.7211 22.1659C10.7424 21.9191 10.7193 22.1588 10.7125 22.204C10.7021 22.2743 10.6883 22.3438 10.6746 22.4132C10.6475 22.5507 10.6109 22.6851 10.5714 22.8178C10.5045 23.0422 10.6397 22.6371 10.5598 22.8541C10.5286 22.9388 10.493 23.0209 10.4569 23.1025C10.4029 23.2243 10.3409 23.3406 10.2764 23.4545C10.1669 23.648 10.379 23.303 10.2585 23.4861C10.2232 23.5399 10.1855 23.5913 10.1478 23.6425C10.0725 23.7452 9.99048 23.8402 9.90661 23.9323C9.86461 23.9783 9.82066 24.0216 9.7767 24.0649C9.93445 23.9096 9.73396 24.0946 9.70121 24.1212C9.6067 24.1982 9.50724 24.2655 9.40652 24.3294C9.35587 24.3615 9.30384 24.3902 9.25185 24.4188C9.4314 24.3199 9.25389 24.4133 9.22018 24.4283C9.11134 24.4768 8.99937 24.514 8.88683 24.5473C8.82989 24.5641 8.77225 24.577 8.71466 24.5898C8.62831 24.6065 8.63717 24.6056 8.74124 24.5875C8.70176 24.593 8.66219 24.5976 8.62258 24.6014C8.50218 24.614 8.38113 24.614 8.26051 24.6098C8.20058 24.6076 8.14081 24.6014 8.08109 24.5951C7.87956 24.574 8.2467 24.6294 8.04851 24.5898C7.93333 24.5669 7.81996 24.532 7.70773 24.4934C7.65218 24.4742 7.59754 24.4513 7.54299 24.4283C7.50688 24.4127 7.47101 24.3963 7.4354 24.379C7.52861 24.4286 7.5366 24.4323 7.45925 24.3901C7.35548 24.333 7.2558 24.2655 7.1579 24.1949C7.10913 24.1596 7.06196 24.1212 7.01487 24.0829C6.98621 24.0596 6.83219 23.9186 6.98647 24.0649C6.79319 23.8816 6.62236 23.665 6.4693 23.4324C6.59118 23.6176 6.47464 23.4331 6.45462 23.3977C6.42239 23.3408 6.39273 23.2817 6.36311 23.2227C6.30352 23.1042 6.252 22.9799 6.20344 22.8542C6.12027 22.6389 6.26208 23.0407 6.19185 22.8178C6.17113 22.7521 6.15345 22.685 6.13577 22.618C6.09403 22.4597 6.06454 22.2969 6.04013 22.1334C6.00404 21.8918 6.05703 22.3396 6.03583 22.0936C6.02958 22.0206 6.02671 21.9474 6.02389 21.8742C6.01811 21.7265 6.02272 21.5786 6.03075 21.4313C6.03318 21.3869 6.05976 21.142 6.03066 21.3898C6.039 21.3187 6.05064 21.2483 6.06233 21.1779C6.08913 21.0156 6.12835 20.8568 6.17221 20.7004C6.18359 20.6599 6.25791 20.4393 6.17999 20.6617C6.20245 20.5976 6.22781 20.535 6.25309 20.4725C6.30352 20.3481 6.36215 20.229 6.42326 20.1121C6.45375 20.0538 6.48681 19.9977 6.51982 19.9416C6.40684 20.1337 6.51786 19.9468 6.54088 19.9131C6.62519 19.7895 6.71844 19.6755 6.81469 19.566C6.85599 19.519 6.8993 19.4747 6.9426 19.4306C7.00784 19.3666 7.00115 19.3728 6.92258 19.449C6.95296 19.4217 6.98375 19.3952 7.01492 19.3693C7.12381 19.2771 7.23925 19.1972 7.3567 19.1227C7.40734 19.0907 7.45938 19.062 7.51137 19.0333C7.32434 19.1363 7.55954 19.0169 7.59745 19.0009C7.7443 18.9393 7.89597 18.8964 8.04856 18.8623C8.24609 18.8181 7.87999 18.8829 8.08113 18.8571C8.16079 18.8468 8.24092 18.8431 8.32093 18.8403C8.46131 18.8354 8.60173 18.8467 8.74128 18.8647C8.53953 18.8387 8.73546 18.8669 8.77247 18.8752C8.849 18.8922 8.92449 18.9155 8.99971 18.9396C9.07425 18.9634 9.14743 18.9932 9.22027 19.0238C9.25638 19.0394 9.29225 19.0558 9.32786 19.0731C9.23465 19.0236 9.22666 19.0199 9.30401 19.062C9.42502 19.1286 9.54073 19.2087 9.65361 19.2936C9.70182 19.3298 9.74838 19.3692 9.7949 19.4087C9.86231 19.4692 9.85627 19.4621 9.77679 19.3873C9.8063 19.4158 9.83539 19.445 9.86405 19.4748C9.96507 19.5779 10.0583 19.6919 10.1479 19.8096C10.1991 19.877 10.2468 19.9482 10.294 20.0199C10.1671 19.8269 10.3183 20.0721 10.3401 20.1121C10.4135 20.2471 10.4768 20.3899 10.5355 20.535C10.5513 20.574 10.6251 20.7922 10.5509 20.5689C10.5798 20.6559 10.604 20.745 10.6276 20.8343C10.6693 20.9926 10.6988 21.1553 10.7232 21.3188C10.7368 21.4244 10.7361 21.4136 10.7213 21.2863C10.7258 21.3346 10.7296 21.3829 10.7326 21.4314C10.7393 21.5293 10.7408 21.6277 10.7416 21.726C10.7456 22.2327 11.0844 22.6557 11.5017 22.6557C11.9131 22.6557 12.2658 22.2328 12.2618 21.726C12.2513 20.3718 11.7801 19.0506 10.9389 18.1599C10.0297 17.1972 8.88018 16.8507 7.70252 17.0576C6.61945 17.248 5.66035 18.1228 5.08011 19.2319C4.47843 20.3819 4.34691 21.8876 4.6876 23.1793C4.97157 24.256 5.56683 25.157 6.34243 25.764C7.15508 26.4001 8.12174 26.5594 9.06065 26.3943C10.9047 26.0702 12.2445 23.9445 12.2618 21.726C12.2657 21.2192 11.9131 20.7963 11.5018 20.7963C11.0844 20.7963 10.7456 21.2193 10.7416 21.726ZM10.7312 33.1405H3.99831C3.93485 33.1405 3.74874 33.106 3.93516 33.1455C3.87813 33.1334 3.82297 33.1113 3.76815 33.0893C3.94458 33.16 3.78435 33.0934 3.74383 33.066C3.70821 33.0418 3.56901 32.9026 3.71508 33.0509C3.68133 33.0166 3.52514 32.7912 3.64519 32.9857C3.61114 32.9305 3.58365 32.8699 3.55633 32.8097C3.46464 32.6075 3.60606 32.9951 3.54673 32.7737C3.53409 32.7265 3.50407 32.4969 3.52866 32.7411C3.52449 32.6996 3.52279 32.6351 3.52279 32.5936V29.4497C3.52279 29.2853 3.53083 29.1218 3.54356 28.9583C3.56445 28.6899 3.51697 29.1499 3.55268 28.8858C3.56332 28.807 3.57726 28.7289 3.5912 28.6508C3.61883 28.4962 3.65605 28.3444 3.69631 28.1942C3.71629 28.1197 3.73936 28.0465 3.76238 27.9733C3.69718 28.1805 3.80038 27.876 3.81493 27.8392C3.87014 27.6997 3.93381 27.5654 4 27.4334C4.03301 27.3676 4.06863 27.3038 4.10424 27.2401C4.1184 27.2147 4.2454 27.0102 4.13591 27.1811C4.30417 26.9186 4.49984 26.6838 4.7091 26.4707C4.8702 26.3065 4.58553 26.5797 4.75519 26.4287C4.80618 26.3833 4.85899 26.341 4.91172 26.2987C5.25754 26.0215 5.40187 25.4808 5.1844 25.0267C4.98313 24.6065 4.49137 24.4152 4.14446 24.6933C3.14049 25.4979 2.40281 26.7204 2.12527 28.1566C1.97173 28.9508 2.00252 29.7682 2.00252 30.5771V32.5843C2.00252 33.9179 2.90786 34.9999 3.99214 34.9999H10.7311C11.1454 34.9999 11.4912 34.577 11.4912 34.0702C11.4912 33.5634 11.1455 33.1405 10.7312 33.1405Z" fill="white"/>
</svg>
