<svg width="44" height="44" viewBox="0 0 44 44" fill="none" xmlns="http://www.w3.org/2000/svg">
<path d="M33 7.33398C33.4862 7.33398 33.9525 7.52713 34.2963 7.87095C34.6401 8.21476 34.8333 8.68108 34.8333 9.16731V36.6673C34.8333 37.1535 34.6401 37.6198 34.2963 37.9636C33.9525 38.3075 33.4862 38.5006 33 38.5006H11C10.5137 38.5006 10.0474 38.3075 9.7036 37.9636C9.35978 37.6198 9.16663 37.1535 9.16663 36.6673V9.16731C9.16663 8.68108 9.35978 8.21476 9.7036 7.87095C10.0474 7.52713 10.5137 7.33398 11 7.33398" stroke="white" stroke-width="2" stroke-linecap="round" stroke-linejoin="round"/>
<path d="M16.5 27.5H27.5M16.5 20.1667H27.5M25.6667 11H18.3333C17.8471 11 17.3808 10.8068 17.037 10.463C16.6932 10.1192 16.5 9.6529 16.5 9.16667V7.33333C16.5 6.8471 16.6932 6.38079 17.037 6.03697C17.3808 5.69315 17.8471 5.5 18.3333 5.5H25.6667C26.1529 5.5 26.6192 5.69315 26.963 6.03697C27.3068 6.38079 27.5 6.8471 27.5 7.33333V9.16667C27.5 9.6529 27.3068 10.1192 26.963 10.463C26.6192 10.8068 26.1529 11 25.6667 11Z" stroke="white" stroke-width="2" stroke-linecap="round" stroke-linejoin="round"/>
</svg>
