<svg width="16" height="16" viewBox="0 0 16 16" fill="none" xmlns="http://www.w3.org/2000/svg">
<path d="M14.9604 13.052C14.5814 12.1543 14.0315 11.3389 13.3412 10.6513C12.653 9.96164 11.8377 9.41179 10.9405 9.03209C10.9325 9.02807 10.9244 9.02606 10.9164 9.02204C12.1679 8.11803 12.9816 6.64548 12.9816 4.9841C12.9816 2.23186 10.7517 0.00195312 7.99942 0.00195312C5.24719 0.00195312 3.01728 2.23186 3.01728 4.9841C3.01728 6.64548 3.8309 8.11803 5.08246 9.02405C5.07442 9.02807 5.06639 9.03008 5.05835 9.0341C4.15835 9.41378 3.35076 9.95821 2.65768 10.6533C1.96804 11.3415 1.41818 12.1567 1.03848 13.054C0.665471 13.9324 0.464297 14.8741 0.445851 15.8283C0.445315 15.8497 0.449076 15.8711 0.456912 15.891C0.464748 15.911 0.476501 15.9292 0.491479 15.9445C0.506456 15.9599 0.524355 15.9721 0.54412 15.9804C0.563885 15.9887 0.585118 15.993 0.606565 15.993H1.81192C1.90032 15.993 1.97063 15.9227 1.97264 15.8363C2.01282 14.2854 2.63558 12.833 3.73648 11.7321C4.87554 10.593 6.38826 9.96624 7.99942 9.96624C9.61058 9.96624 11.1233 10.593 12.2624 11.7321C13.3633 12.833 13.986 14.2854 14.0262 15.8363C14.0282 15.9247 14.0985 15.993 14.1869 15.993H15.3923C15.4137 15.993 15.435 15.9887 15.4547 15.9804C15.4745 15.9721 15.4924 15.9599 15.5074 15.9445C15.5223 15.9292 15.5341 15.911 15.5419 15.891C15.5498 15.8711 15.5535 15.8497 15.553 15.8283C15.5329 14.868 15.334 13.9339 14.9604 13.052ZM7.99942 8.43946C7.07732 8.43946 6.20947 8.07986 5.55657 7.42695C4.90366 6.77405 4.54407 5.9062 4.54407 4.9841C4.54407 4.062 4.90366 3.19414 5.55657 2.54124C6.20947 1.88834 7.07732 1.52874 7.99942 1.52874C8.92152 1.52874 9.78938 1.88834 10.4423 2.54124C11.0952 3.19414 11.4548 4.062 11.4548 4.9841C11.4548 5.9062 11.0952 6.77405 10.4423 7.42695C9.78938 8.07986 8.92152 8.43946 7.99942 8.43946Z" fill="#787878"/>
</svg>
